<?xml version="1.0" standalone="no"?>
<!DOCTYPE svg PUBLIC "-//W3C//DTD SVG 20010904//EN"
 "http://www.w3.org/TR/2001/REC-SVG-20010904/DTD/svg10.dtd">
<svg version="1.0" xmlns="http://www.w3.org/2000/svg"
 width="300.000000pt" height="300.000000pt" viewBox="0 0 300.000000 300.000000"
 preserveAspectRatio="xMidYMid meet">

<g transform="translate(0.000000,300.000000) scale(0.100000,-0.100000)"
fill="#000000" stroke="none">
<path d="M1335 2989 c-659 -90 -1194 -569 -1310 -1171 -44 -230 -25 -516 52
-763 37 -120 153 -348 227 -445 259 -344 665 -565 1094 -599 340 -26 677 63
972 257 117 78 289 251 373 378 172 259 248 523 248 864 1 171 -15 294 -56
435 -151 523 -581 914 -1129 1026 -117 24 -361 33 -471 18z m85 -459 l0 -320
-29 0 c-40 0 -227 36 -323 62 -57 15 -78 26 -78 38 0 52 253 490 304 525 11 9
43 15 73 15 l53 0 0 -320z m297 284 c61 -74 164 -240 226 -364 l67 -135 -21
-18 c-41 -33 -277 -87 -386 -87 l-33 0 0 321 0 321 62 -4 c53 -4 64 -8 85 -34z
m353 -81 c107 -49 340 -202 340 -223 0 -9 -116 -83 -197 -124 -68 -36 -93 -39
-93 -13 -1 39 -186 375 -225 407 -49 41 28 20 175 -47z m-1032 -30 c-59 -93
-168 -310 -168 -332 0 -19 -24 -12 -115 34 -101 52 -175 97 -175 107 0 22 164
139 270 193 48 25 224 93 242 95 4 0 -21 -44 -54 -97z m-499 -332 c33 -21 110
-60 171 -87 82 -36 110 -53 106 -64 -3 -8 -21 -60 -41 -114 -42 -119 -83 -309
-92 -435 l-6 -91 -270 0 -270 0 7 68 c23 221 110 469 223 633 45 67 95 127
105 128 4 1 34 -16 67 -38z m2020 -7 c130 -148 235 -384 276 -623 8 -46 15
-101 15 -122 l0 -39 -265 0 -265 0 0 49 c0 99 -54 347 -112 514 -16 48 -29 90
-27 91 2 2 58 31 124 64 66 34 136 72 155 86 19 14 40 25 47 26 6 0 30 -21 52
-46z m-1354 -259 c55 -13 126 -27 158 -31 l57 -6 0 -244 0 -244 -311 0 -311 0
7 83 c10 117 40 262 81 386 52 155 40 145 136 110 46 -17 128 -41 183 -54z
m873 33 c52 -138 96 -333 108 -475 l7 -83 -312 0 -311 0 0 244 0 243 89 12
c94 12 211 43 321 84 36 14 68 25 72 26 4 0 15 -23 26 -51z m-1404 -730 c3
-13 6 -46 6 -75 0 -78 33 -230 83 -388 24 -77 47 -147 51 -156 5 -12 -10 -24
-72 -52 -44 -20 -122 -59 -173 -87 l-94 -51 -34 38 c-111 127 -223 354 -264
539 -19 81 -38 235 -31 246 3 5 121 8 263 8 l259 0 6 -22z m746 -223 l0 -245
-31 0 c-54 0 -230 -40 -336 -76 -55 -18 -103 -34 -106 -34 -11 0 -68 164 -92
263 -23 95 -55 280 -55 320 0 16 21 17 310 17 l310 0 0 -245z m766 163 c-10
-117 -39 -249 -87 -393 -23 -69 -42 -125 -43 -125 -1 0 -38 13 -82 29 -91 33
-238 67 -336 77 l-68 7 0 243 0 244 311 0 312 0 -7 -82z m664 38 c0 -213 -145
-583 -291 -740 l-40 -44 -62 35 c-34 19 -110 59 -169 89 -60 30 -108 56 -108
59 0 2 24 77 54 167 57 171 96 345 96 429 l0 49 260 0 260 0 0 -44z m-1430
-903 l0 -338 -64 3 -64 4 -40 56 c-102 146 -271 475 -259 506 7 18 337 103
410 105 16 1 17 -22 17 -336z m314 312 c47 -8 129 -29 180 -45 l95 -31 -35
-77 c-65 -142 -176 -351 -223 -419 l-46 -68 -68 -3 -67 -3 0 331 0 330 39 0
c21 0 77 -7 125 -15z m-809 -262 c33 -70 88 -173 121 -230 34 -57 60 -103 58
-103 -13 0 -160 58 -209 83 -67 33 -170 102 -259 170 l-58 46 68 44 c72 46
201 117 212 117 4 0 34 -58 67 -127z m1329 61 c175 -95 167 -87 125 -130 -61
-63 -152 -126 -254 -175 -83 -39 -213 -84 -221 -76 -1 1 24 45 57 97 32 52 82
152 110 223 29 70 55 127 58 127 3 0 59 -30 125 -66z"/>
</g>
</svg>
